<svg width="580" height="400" xmlns="http://www.w3.org/2000/svg">
 <!-- Created with Method Draw - http://github.com/duopixel/Method-Draw/ -->

 <g>
  <title>background</title>
  <rect fill="#fff" id="canvas_background" height="402" width="582" y="-1" x="-1"/>
  <g display="none" overflow="visible" y="0" x="0" height="100%" width="100%" id="canvasGrid">
   <rect fill="url(#gridpattern)" stroke-width="0" y="0" x="0" height="100%" width="100%"/>
  </g>
 </g>
 <g>
  <title>Layer 1</title>
  <g id="svg_26">
   <g transform="matrix(17.361109786563475,0,0,17.361109786563475,0,0) " id="svg_7">
    <g id="svg_5">
     <g id="svg_8">
      <path stroke="#fff" id="svg_9" fill="#88a8e6" d="m0.704,-0.479999l0,12l8,0c0,4.41 -3.586,8 -8,8l0,4c6.617,0 12,-5.383 12,-12l0,-12l-12,0z"/>
      <path stroke="#fff" id="svg_10" fill="#88a8e6" d="m20.704,-0.479999l0,12l8,0c0,4.41 -3.586,8 -8,8l0,4c6.617,0 12,-5.383 12,-12l0,-12l-12,0z"/>
     </g>
    </g>
   </g>
   <g transform="matrix(17.361109786563475,0,0,17.361109786563475,0,0) " id="svg_11"/>
   <g transform="matrix(17.361109786563475,0,0,17.361109786563475,0,0) " id="svg_12"/>
   <g transform="matrix(17.361109786563475,0,0,17.361109786563475,0,0) " id="svg_13"/>
   <g transform="matrix(17.361109786563475,0,0,17.361109786563475,0,0) " id="svg_14"/>
   <g transform="matrix(17.361109786563475,0,0,17.361109786563475,0,0) " id="svg_15"/>
   <g transform="matrix(17.361109786563475,0,0,17.361109786563475,0,0) " id="svg_16"/>
   <g transform="matrix(17.361109786563475,0,0,17.361109786563475,0,0) " id="svg_17"/>
   <g transform="matrix(17.361109786563475,0,0,17.361109786563475,0,0) " id="svg_18"/>
   <g transform="matrix(17.361109786563475,0,0,17.361109786563475,0,0) " id="svg_19"/>
   <g transform="matrix(17.361109786563475,0,0,17.361109786563475,0,0) " id="svg_20"/>
   <g transform="matrix(17.361109786563475,0,0,17.361109786563475,0,0) " id="svg_21"/>
   <g transform="matrix(17.361109786563475,0,0,17.361109786563475,0,0) " id="svg_22"/>
   <g transform="matrix(17.361109786563475,0,0,17.361109786563475,0,0) " id="svg_23"/>
   <g transform="matrix(17.361109786563475,0,0,17.361109786563475,0,0) " id="svg_24"/>
   <g transform="matrix(17.361109786563475,0,0,17.361109786563475,0,0) " id="svg_25"/>
  </g>
 </g>
</svg>